<?xml version="1.0" encoding="utf-8"?>
<!-- Generator: Adobe Illustrator 26.5.0, SVG Export Plug-In . SVG Version: 6.00 Build 0)  -->
<svg version="1.1" id="Layer_1" xmlns="http://www.w3.org/2000/svg" xmlns:xlink="http://www.w3.org/1999/xlink" x="0px" y="0px"
	 viewBox="0 0 269 287" style="enable-background:new 0 0 269 287;" xml:space="preserve">
<style type="text/css">
	.st0{fill:#3A3939;}
	.st1{fill:#FFFFFF;}
	.st2{fill:#959798;}
	.st3{fill:none;stroke:#6ABD45;stroke-width:0.5;stroke-miterlimit:10;}
	.st4{fill:#F26623;}
</style>
<g>
	<g>
		<path class="st0" d="M90.41,62.05c0.72-0.56,2.07-1.27,2.07-1.27c1.49-0.81,5.31-1.97,8.25-2.63c2.93-0.66,10.9-1.75,13.76-2.15
			c2.86-0.4,5.89-2.2,5.89-2.2s10.57-5.94,15.33-8.07c4.76-2.12,10.25-2.05,17.2-2.18c6.96-0.13,15.29,0.62,15.29,0.62l9.14,0.83
			c0,0,9.55,1.11,10.07,1.16c0.52,0.05,0.67,0.44,0.67,0.44l-2.41,1.12l4.08,4.82l4.82,1.47c0,0,0.83,0.75,1.81,1.33
			s1.15,1.11,1.15,1.11l0.08,1.15c0,0,0.01,0.09,0.08,1.63c0.06,1.54,0.16,2.72,0.58,3.55c0.42,0.83,0.52,1.48,0.52,1.48l0.14,3.79
			c0,0-0.24,2.44,0,2.72c0.24,0.28,0.71,2.59,0.71,2.59c-0.05,0.38,0,0.32,0,0.32c0.05,2.2-0.78,3.52-1.87,4.4s-5.97,1.37-5.97,1.37
			s-0.08-1.25-0.1-1.61c0-6.48-5.26-11.74-11.74-11.74s-11.74,5.26-11.74,11.74c0,0.36,0.15,2.66,0.15,2.66l-49.19,0.47l-0.54-5.4
			c-0.62-5.65-4.79-9.46-11.3-9.42c-6.25,0.04-11.47,4.3-11.47,9.85c0,0-0.32,4.23-0.08,4.67l0.71,0.03l-0.05,0.68
			c-2.86,0.03-3.97-1.14-3.97-1.14c-0.86-0.05-1.49-0.53-1.49-0.53s-0.38,0.05-0.71,0c-0.33-0.05-1.47-0.89-1.47-0.89l-0.73-4.68
			c0,0,0-0.68,0.51-0.99c0.51-0.3,0.63-0.71,0.63-0.71c-0.66-1.59-0.51-3.16-0.28-4.48c0.17-0.99,0.64-1.95,0.88-2.42l0.04-0.09
			c0,0-0.37-0.49-0.46-0.63s0.13-0.17,0.43-0.26c0,0,0.11-0.87,0.14-1.02c0.02-0.15,0.55-0.53,0.55-0.53l-0.01-0.57
			c-0.2,0.2-0.51,0-0.51,0C90.05,62.35,90.2,62.21,90.41,62.05"/>
		<circle class="st0" cx="107.22" cy="78.3" r="9.91"/>
		<circle class="st0" cx="180.03" cy="78.44" r="9.91"/>
		<path class="st1" d="M175.95,50.68c0.91,0.91-0.46,1.29-0.46,1.29c-5.72,2.23-10.98,2.71-10.98,2.71l-13.83,0.76l-22.51,1.3
			l-4.95,0.3c0,0-0.83-0.99-0.8-1.45c0.03-0.46,4.76-3.38,4.76-3.38c11.94-6.93,16.29-6.48,25.09-6.73s19.36,0.99,19.36,0.99
			S175.04,49.77,175.95,50.68z"/>
		<path class="st2" d="M197.28,58.11c0,0-0.2,0.46-0.35,0.46s-0.2,0.15-0.25,0.46c-0.05,0.3-0.23,1.75-0.76,1.69
			c-0.53-0.05-1.06-0.15-1.42-0.38s-4.58-2.07-4.58-2.07s-0.99-0.89-0.96-1.57c0.03-0.68,2.88-1.14,2.88-1.14s1.48-0.09,2.61-0.09
			c0.52,0,0.96,0.03,1.15,0.09"/>
		<path class="st2" d="M90.47,65.35c0.03,0.02,1.69,0.09,2.5-0.15c1.34-0.17,2.35-0.61,2.86-0.81c0.51-0.2,4.4-2.66,4.81-3.01
			c0.4-0.35-0.94-0.58-1.92-0.61c-0.99-0.03-3.42,0.23-5.26,0.71s-2.15,1.34-2.15,1.34S91.08,63.16,90.47,65.35z"/>
		<polygon class="st0" points="169.69,54.31 170.19,46.05 169.56,45.98 169.03,54.16 		"/>
		<polygon class="st0" points="154.24,45.08 153.16,55.68 148.1,55.92 150.43,45.03 		"/>
		<path class="st2" d="M91.44,68.4c0.24,1.47,1.28,7.59,1.28,7.59s-2.06,0.13-2.36-0.44c-0.3-0.57-0.76-2.39-0.76-2.39
			s0.09-0.45,0.46-1.36c0.37-0.91,0.81-1.88,0.81-1.88L91.44,68.4"/>
		<circle class="st2" cx="107.22" cy="78.3" r="6.85"/>
		<circle class="st2" cx="180.03" cy="78.44" r="6.85"/>
		<path class="st0" d="M99.29,62.98c0.14-0.43,0.61-1.68,0.18-1.72s-6.76,0.88-6.76,0.88s-0.76,0.51-0.71,0.57
			c0.05,0.07,1.99-0.25,2.34-0.32c0.35-0.07,2.11-0.34,2.18-0.13s-0.56,2.06-0.56,2.06"/>
		<path class="st3" d="M147.41,59.69"/>
	</g>
	<path class="st4" d="M203.53,122.52c-1.01-0.79-2.91-1.79-2.91-1.79c-2.1-1.14-7.48-2.78-11.6-3.7
		c-4.13-0.93-15.34-2.46-19.37-3.03c-4.02-0.57-8.29-3.1-8.29-3.1s-14.88-8.37-21.57-11.36c-6.69-2.99-14.42-2.88-24.21-3.06
		c-9.79-0.18-21.51,0.88-21.51,0.88L81.2,98.54c0,0-13.43,1.57-14.17,1.64c-0.74,0.07-0.95,0.62-0.95,0.62l3.39,1.58l-5.74,6.78
		l-6.78,2.08c0,0-1.17,1.05-2.55,1.87c-1.37,0.82-1.62,1.57-1.62,1.57l-0.11,1.62c0,0-0.02,0.12-0.11,2.3
		c-0.09,2.17-0.23,3.83-0.82,5s-0.73,2.08-0.73,2.08l-0.2,5.34c0,0,0.34,3.44,0,3.83c-0.34,0.39-1,3.65-1,3.65
		c0.07,0.53,0,0.44,0,0.44c-0.07,3.1,1.1,4.95,2.63,6.19c1.53,1.25,8.4,1.92,8.4,1.92s0.11-1.76,0.14-2.27
		c0-9.12,7.4-16.52,16.52-16.52s16.52,7.4,16.52,16.52c0,0.51-0.21,3.74-0.21,3.74l69.23,0.66l0.76-7.61
		c0.87-7.94,6.74-13.32,15.9-13.26c8.8,0.06,16.15,6.05,16.15,13.86c0,0,0.44,5.96,0.11,6.58l-1,0.04l0.07,0.96
		c4.02,0.04,5.59-1.6,5.59-1.6c1.21-0.07,2.1-0.75,2.1-0.75s0.53,0.07,1,0s2.06-1.25,2.06-1.25l1.03-6.59c0,0,0-0.96-0.71-1.39
		s-0.89-1-0.89-1c0.93-2.24,0.71-4.45,0.39-6.3c-0.24-1.39-0.9-2.75-1.24-3.41l-0.06-0.12c0,0,0.52-0.69,0.65-0.88
		c0.12-0.19-0.18-0.24-0.61-0.36c0,0-0.16-1.23-0.19-1.44s-0.77-0.75-0.77-0.75l0.02-0.8c0.28,0.28,0.71,0,0.71,0
		C204.03,122.96,203.82,122.75,203.53,122.52"/>
	<circle class="st0" cx="179.87" cy="145.39" r="13.94"/>
	<circle class="st0" cx="77.41" cy="145.6" r="13.94"/>
	<path class="st1" d="M83.15,106.53c-1.28,1.28,0.64,1.82,0.64,1.82c8.05,3.13,15.45,3.81,15.45,3.81l19.47,1.07l31.67,1.83
		l6.96,0.42c0,0,1.17-1.39,1.13-2.05c-0.04-0.65-6.69-4.76-6.69-4.76c-16.8-9.75-22.92-9.11-35.31-9.47s-27.25,1.39-27.25,1.39
		S84.43,105.25,83.15,106.53z"/>
	<path class="st1" d="M53.14,116.98c0,0,0.28,0.64,0.5,0.64s0.28,0.21,0.36,0.64c0.07,0.43,0.32,2.46,1.07,2.39
		c0.75-0.07,1.5-0.21,1.99-0.53c0.5-0.32,6.44-2.92,6.44-2.92s1.39-1.25,1.35-2.21c-0.04-0.96-4.06-1.6-4.06-1.6
		s-2.08-0.13-3.67-0.13c-0.73,0-1.35,0.04-1.62,0.13"/>
	<path class="st1" d="M203.44,127.17c-0.04,0.03-2.38,0.12-3.52-0.22c-1.89-0.24-3.31-0.86-4.02-1.14
		c-0.71-0.28-6.19-3.74-6.76-4.24s1.32-0.82,2.71-0.85s4.81,0.32,7.4,1s3.03,1.89,3.03,1.89S202.58,124.09,203.44,127.17z"/>
	<polygon class="st4" points="91.95,111.63 91.26,100.01 92.14,99.92 92.89,111.43 	"/>
	<polygon class="st4" points="113.71,98.65 115.22,113.57 122.34,113.91 119.06,98.58 	"/>
	<path class="st1" d="M202.07,131.47c-0.34,2.07-1.8,10.68-1.8,10.68s2.9,0.19,3.32-0.62c0.43-0.81,1.07-3.36,1.07-3.36
		s-0.12-0.63-0.64-1.91c-0.52-1.28-1.14-2.65-1.14-2.65L202.07,131.47"/>
	<circle class="st2" cx="179.87" cy="145.39" r="9.64"/>
	<circle class="st2" cx="77.41" cy="145.6" r="9.64"/>
	<path class="st4" d="M191.02,123.84c-0.2-0.61-0.85-2.37-0.26-2.42s9.52,1.23,9.52,1.23s1.07,0.71,1,0.81
		c-0.07,0.09-2.8-0.36-3.3-0.45c-0.5-0.09-2.97-0.47-3.06-0.19c-0.09,0.28,0.79,2.9,0.79,2.9"/>
	<path class="st3" d="M123.31,119.21"/>
</g>
<g id="g9jwd1.tif">
	<g>
		<path class="st0" d="M163.71,225.54c-0.33,2.01-0.48,4.06-1.02,6.01c-3.09,11.1-10.24,18.26-21.35,21.22
			c-7.16,1.91-14.17,0.86-20.94-2c-4.41-1.86-8.15-4.69-11.52-8.06c-9.31-9.33-18.63-18.65-27.95-27.96
			c-1.56-1.56-2.63-3.33-2.9-5.59c-0.59-4.91,3.16-9.39,8.14-9.61c2.42-0.11,4.67,0.5,6.81,1.58c3.74,1.87,7.49,3.74,11.23,5.61
			c0.18,0.09,0.38,0.16,0.76,0.32c0-0.5,0-0.9,0-1.3c0-16.88,0-33.77,0-50.65c0-3.96,1.6-7.02,5.21-8.83c0.8-0.4,1.71-0.6,2.58-0.89
			c0.85,0,1.69,0,2.54,0c0.86,0.29,1.77,0.48,2.57,0.88c3.53,1.76,5.18,4.73,5.21,8.61c0.04,4.33,0.01,8.66,0.01,12.99
			c0,0.37,0.03,0.73,0.05,1.19c2.56-1.26,5.09-1.48,7.65-0.5c2.57,0.97,4.25,2.87,5.31,5.38c2.53-1.53,5.14-1.93,7.87-1
			c2.72,0.92,4.54,2.84,5.64,5.5c0.23-0.12,0.39-0.19,0.54-0.27c4.69-2.52,10.05-0.91,12.48,3.83c0.53,1.03,0.72,2.24,1.07,3.37
			C163.71,198.76,163.71,212.15,163.71,225.54z M91.24,205.35c-0.91-0.45-1.87-0.84-2.85-1.08c-2.83-0.68-5.02,0.39-5.72,2.73
			c-0.55,1.84,0.19,3.26,1.47,4.54c9.35,9.33,18.69,18.68,28.03,28.03c2.2,2.2,4.57,4.19,7.31,5.68c6.58,3.58,13.55,4.88,20.88,3.09
			c10.85-2.65,18.58-12.35,18.68-23.5c0.11-12.93,0.03-25.86,0.03-38.8c0-0.38-0.04-0.78-0.13-1.14c-0.6-2.26-2.62-3.62-4.94-3.35
			c-2.14,0.24-3.83,2.16-3.85,4.46c-0.03,3.45-0.01,6.91-0.01,10.36c0,2.06-0.8,3.15-2.3,3.15c-1.5,0-2.29-1.1-2.29-3.16
			c0-4.9-0.01-9.8,0-14.69c0-1.42-0.47-2.63-1.54-3.55c-1.42-1.22-3.07-1.43-4.74-0.71c-1.69,0.73-2.63,2.12-2.64,3.98
			c-0.03,5.14-0.01,10.29-0.02,15.43c-0.01,1.67-0.94,2.72-2.32,2.7c-1.35-0.02-2.22-1.04-2.26-2.66c-0.02-1.02,0-2.04,0-3.07
			c0-5.64,0.03-11.28-0.02-16.91c-0.02-2.99-2.86-5.03-5.72-4.2c-1.94,0.56-3.19,2.26-3.19,4.46c-0.01,6.41,0,12.83-0.01,19.24
			c0,2.05-0.81,3.15-2.31,3.14c-1.49-0.01-2.28-1.1-2.28-3.17c0-9.62,0-19.24,0-28.86c0-4.37,0.01-8.74-0.01-13.11
			c-0.01-1.92-1.16-3.51-2.88-4.15c-3-1.11-6.03,1.02-6.04,4.3c-0.02,9.27-0.01,18.53-0.01,27.8c0,9.23,0,18.46,0,27.7"/>
	</g>
</g>
</svg>
