<?xml version="1.0" encoding="utf-8"?>
<!-- Generator: Adobe Illustrator 26.5.0, SVG Export Plug-In . SVG Version: 6.00 Build 0)  -->
<svg version="1.1" id="Layer_1" xmlns="http://www.w3.org/2000/svg" xmlns:xlink="http://www.w3.org/1999/xlink" x="0px" y="0px"
	 viewBox="0 0 267 142" style="enable-background:new 0 0 267 142;" xml:space="preserve">
<style type="text/css">
	.st0{fill:#3A3939;}
	.st1{fill:#FFFFFF;}
	.st2{fill:#959798;}
	.st3{fill:none;stroke:#6ABD45;stroke-width:0.5;stroke-miterlimit:10;}
	.st4{fill:none;stroke:#828282;stroke-width:6;stroke-miterlimit:10;}
</style>
<g>
	<g>
		<path class="st0" d="M218.51,64.56c-1.13-0.88-3.25-1.99-3.25-1.99c-2.34-1.27-8.34-3.1-12.95-4.13
			c-4.61-1.03-17.12-2.74-21.6-3.38c-4.49-0.64-9.25-3.46-9.25-3.46s-16.6-9.33-24.07-12.67c-7.47-3.34-16.08-3.22-27-3.42
			s-24,0.98-24,0.98l-14.35,1.3c0,0-14.99,1.75-15.81,1.83s-1.06,0.69-1.06,0.69l3.78,1.77l-6.41,7.57l-7.57,2.31
			c0,0-1.31,1.17-2.84,2.08c-1.53,0.91-1.81,1.75-1.81,1.75l-0.12,1.81c0,0-0.02,0.14-0.12,2.56c-0.1,2.42-0.26,4.27-0.91,5.58
			c-0.66,1.31-0.81,2.32-0.81,2.32l-0.22,5.96c0,0,0.38,3.83,0,4.27c-0.38,0.44-1.12,4.07-1.12,4.07c0.08,0.6,0,0.5,0,0.5
			c-0.08,3.46,1.23,5.52,2.94,6.91c1.71,1.39,9.37,2.14,9.37,2.14s0.12-1.97,0.15-2.53c0-10.18,8.25-18.43,18.43-18.43
			s18.43,8.25,18.43,18.43c0,0.56-0.24,4.17-0.24,4.17l77.23,0.74l0.84-8.48c0.97-8.86,7.52-14.85,17.73-14.79
			c9.82,0.06,18.01,6.75,18.01,15.46c0,0,0.5,6.64,0.12,7.34l-1.11,0.04l0.08,1.07c4.49,0.04,6.23-1.79,6.23-1.79
			c1.35-0.08,2.34-0.83,2.34-0.83s0.6,0.08,1.11,0c0.52-0.08,2.3-1.39,2.3-1.39l1.15-7.35c0,0,0-1.07-0.79-1.55
			c-0.79-0.48-0.99-1.11-0.99-1.11c1.03-2.5,0.79-4.96,0.44-7.03c-0.27-1.55-1-3.07-1.39-3.8l-0.07-0.14c0,0,0.58-0.77,0.72-0.98
			c0.14-0.21-0.2-0.26-0.68-0.4c0,0-0.18-1.37-0.21-1.61c-0.03-0.24-0.86-0.84-0.86-0.84l0.02-0.89c0.32,0.32,0.79,0,0.79,0
			C219.07,65.04,218.83,64.81,218.51,64.56"/>
		<circle class="st0" cx="192.12" cy="90.08" r="15.55"/>
		<circle class="st0" cx="77.81" cy="90.3" r="15.55"/>
		<path class="st1" d="M84.22,46.72c-1.43,1.43,0.71,2.03,0.71,2.03c8.98,3.49,17.24,4.25,17.24,4.25l21.72,1.19l35.34,2.04
			l7.77,0.47c0,0,1.3-1.55,1.26-2.28c-0.04-0.73-7.47-5.31-7.47-5.31c-18.74-10.88-25.58-10.17-39.4-10.56
			c-13.82-0.4-30.4,1.55-30.4,1.55S85.64,45.29,84.22,46.72z"/>
		<path class="st2" d="M50.74,58.38c0,0,0.32,0.71,0.56,0.71s0.32,0.24,0.4,0.71c0.08,0.48,0.36,2.74,1.19,2.66
			c0.83-0.08,1.67-0.24,2.22-0.6s7.19-3.26,7.19-3.26s1.55-1.39,1.51-2.46s-4.53-1.79-4.53-1.79s-2.32-0.15-4.09-0.14
			c-0.81,0-1.51,0.04-1.8,0.14"/>
		<path class="st2" d="M218.41,69.75c-0.04,0.03-2.66,0.14-3.92-0.24c-2.1-0.27-3.69-0.96-4.49-1.28s-6.91-4.17-7.55-4.73
			c-0.64-0.56,1.47-0.91,3.02-0.95c1.55-0.04,5.36,0.36,8.26,1.11c2.9,0.75,3.38,2.1,3.38,2.1S217.45,66.31,218.41,69.75z"/>
		<polygon class="st0" points="94.04,52.41 93.27,39.44 94.24,39.34 95.08,52.19 		"/>
		<polygon class="st0" points="118.31,37.93 119.99,54.57 127.94,54.95 124.28,37.85 		"/>
		<path class="st2" d="M216.89,74.54c-0.38,2.31-2.01,11.92-2.01,11.92s3.23,0.21,3.71-0.69c0.48-0.9,1.19-3.75,1.19-3.75
			s-0.14-0.71-0.71-2.13c-0.58-1.42-1.27-2.95-1.27-2.95L216.89,74.54"/>
		<circle class="st2" cx="192.12" cy="90.08" r="10.76"/>
		<circle class="st2" cx="77.81" cy="90.3" r="10.76"/>
		<path class="st0" d="M204.56,66.03c-0.22-0.68-0.95-2.64-0.29-2.7s10.62,1.38,10.62,1.38s1.19,0.79,1.11,0.9
			c-0.08,0.11-3.12-0.4-3.68-0.5c-0.56-0.11-3.31-0.53-3.42-0.21c-0.11,0.32,0.88,3.23,0.88,3.23"/>
		<path class="st3" d="M129.02,60.87"/>
	</g>
</g>
<path class="st4" d="M231.86,125.23H37.36c-9.21,0-16.67-7.46-16.67-16.67V32.8c0-9.21,7.46-16.67,16.67-16.67h194.5
	c9.21,0,16.67,7.46,16.67,16.67v75.76C248.53,117.77,241.07,125.23,231.86,125.23z"/>
</svg>
