<svg id="Layer_1" data-name="Layer 1" xmlns="http://www.w3.org/2000/svg" viewBox="0 0 48.24 48.24"><defs><style>.cls-1{fill:#cb2026;}.cls-2{fill:none;stroke:#cb2026;stroke-miterlimit:10;stroke-width:2.5px;}</style></defs><title>icon-commercial-black</title><g id="Layer_2" data-name="Layer 2"><g id="Layer_1-2" data-name="Layer 1-2"><g id="Layer_2-2" data-name="Layer 2-2"><g id="Layer_1-2-2" data-name="Layer 1-2-2"><path class="cls-1" d="M7.17,7.17a24,24,0,1,0,33.9,0A23.9,23.9,0,0,0,7.17,7.17Zm31.7,31.7a20.79,20.79,0,1,1,0-29.4h0A20.82,20.82,0,0,1,38.87,38.87Z"/></g></g></g></g><circle class="cls-2" cx="24.07" cy="24.07" r="16.2"/><line class="cls-2" x1="24.07" y1="7.87" x2="24.07" y2="11.87"/><line class="cls-2" x1="12.27" y1="24.07" x2="8.27" y2="24.07"/><line class="cls-2" x1="24.07" y1="24.07" x2="28.87" y2="12.87"/><line class="cls-2" x1="15.17" y1="16.87" x2="12.27" y2="13.97"/><line class="cls-2" x1="33.27" y1="16.87" x2="36.17" y2="13.97"/><line class="cls-2" x1="40.27" y1="24.07" x2="36.27" y2="24.07"/><circle class="cls-1" cx="24.07" cy="24.07" r="3.4"/></svg>