<svg xmlns="http://www.w3.org/2000/svg" viewBox="0 0 48 48"><defs><style>.cls-1{fill:#cb2026;}</style></defs><title>Asset 19</title><g id="Layer_2" data-name="Layer 2"><g id="Layer_1-2" data-name="Layer 1"><path class="cls-1" d="M22,48a2.81,2.81,0,0,1-2.64-1.68l-1-2.23a20.17,20.17,0,0,1-4-1.6l-.69.28-1.49.61a2.88,2.88,0,0,1-3.24-.62L6.18,40.1l-.49-.47A2.83,2.83,0,0,1,5,36.5q.42-1.13.83-2.27a20.79,20.79,0,0,1-1.71-4l-.8-.34-1.36-.58A2.91,2.91,0,0,1,.07,26.56c0-1.21,0-2.43-.05-3.64v-.82A2.82,2.82,0,0,1,1.67,19.4l2.23-1a20.2,20.2,0,0,1,1.59-4l-.56-1.4-.35-.88A2.79,2.79,0,0,1,5.19,9L6,8.1,8.32,5.74A2.88,2.88,0,0,1,11.6,5l1.66.62.52.19a20.26,20.26,0,0,1,4-1.72L18.23,3l.48-1.12A2.84,2.84,0,0,1,21.37.07L25.91,0a2.91,2.91,0,0,1,2.71,1.69l1,2.22a19.9,19.9,0,0,1,4,1.6l.62-.25,1.55-.63a2.9,2.9,0,0,1,3.26.63Q40.7,6.81,42.3,8.35a3,3,0,0,1,1,2l0,.24-.08.34a3.81,3.81,0,0,1-.15.57q-.41,1.15-.84,2.31a20.54,20.54,0,0,1,1.72,4l1.29.55.95.41a2.8,2.8,0,0,1,1.77,2.64q0,2.28.07,4.55a2.82,2.82,0,0,1-1.67,2.69l-2.23,1a20,20,0,0,1-1.59,4l.31.77.57,1.42a2.88,2.88,0,0,1-.63,3.24l-2.22,2.28-.93,1a2.8,2.8,0,0,1-3.1.7l-2.29-.83a21.17,21.17,0,0,1-4,1.72c-.3.7-.61,1.4-.9,2.11a2.88,2.88,0,0,1-2.14,1.85,3.14,3.14,0,0,1-.54.05L22.1,48Zm-7.62-8.77a2,2,0,0,1,1,.26,16.94,16.94,0,0,0,4.27,1.69A1.94,1.94,0,0,1,21,42.29q.59,1.29,1.19,2.56l4.27-.07c.4-.94.77-1.79,1.14-2.64a2,2,0,0,1,1.25-1.09,18,18,0,0,0,4.29-1.85A2,2,0,0,1,34.75,39l2.72,1,.82-.84L40.44,37,39.9,35.6l-.5-1.25a2,2,0,0,1,.1-1.74,16.89,16.89,0,0,0,1.69-4.29A1.94,1.94,0,0,1,42.29,27l2.56-1.19c0-1.44,0-2.85-.06-4.27L44,21.2l-1.79-.76a1.91,1.91,0,0,1-1.13-1.28,17.28,17.28,0,0,0-1.83-4.23,1.94,1.94,0,0,1-.16-1.73q.5-1.34,1-2.69C39,9.56,38,8.56,37,7.56l-1.52.61-1.09.44a2,2,0,0,1-1.76-.11,16.71,16.71,0,0,0-4.26-1.69A2,2,0,0,1,27,5.71c-.39-.86-.79-1.71-1.18-2.56l-4.28.06-.44,1-.68,1.59A1.92,1.92,0,0,1,19.16,7a17.18,17.18,0,0,0-4.25,1.84,1.93,1.93,0,0,1-1.71.15l-1-.37L10.55,8,8.28,10.3,7.56,11l.29.73.75,1.86A2,2,0,0,1,8.5,15.4a17.1,17.1,0,0,0-1.68,4.25A2,2,0,0,1,5.7,21L3.15,22.18v.67c0,1.2,0,2.4.05,3.6L4.53,27l1.29.55A1.93,1.93,0,0,1,7,28.84,17.64,17.64,0,0,0,8.8,33.13,2,2,0,0,1,9,34.76q-.48,1.35-1,2.7l.39.38L11,40.44l1.44-.58,1.15-.47A2.08,2.08,0,0,1,14.42,39.23Zm4.51,5h0Zm10.77-.16h0ZM14.82,42.3h0ZM6.09,34.72v0Zm-.1-1H6ZM44.93,21.6h0l.6-1.46ZM3.77,18.9h0Zm40.32-.6h0ZM4.4,18.14h0Zm39-.6h0ZM5.7,14.82h0Zm.06-1h0ZM14.28,6h0Zm19.87-.22h0Zm-1-.07h0Zm-4.1-1.94h0Z"/><path class="cls-1" d="M22.36,35.12h-1.3a3.43,3.43,0,0,1-3.47-3.47V28.71h4.34v2.17a.32.32,0,0,0,.33.33h3.47a.27.27,0,0,0,.3-.3V26.84a.3.3,0,0,0-.23-.33c-1.27-.4-3.64-1.14-5.85-1.87a3.16,3.16,0,0,1-2.21-3V16.35a3.49,3.49,0,0,1,3.47-3.47h1.14V9.4h3.37v3.47h1.07a3.49,3.49,0,0,1,3.47,3.47v2.84H26.07V17.12a.32.32,0,0,0-.33-.33H22.46a.3.3,0,0,0-.33.33v3.77a.3.3,0,0,0,.23.33c1.6.5,3.81,1.27,5.78,1.9a2.78,2.78,0,0,1,2.27,3v5.48a3.37,3.37,0,0,1-3.47,3.47h-1.2V38.6H22.36Z"/></g></g></svg>