<?xml version="1.0" encoding="utf-8"?>
<!-- Generator: Adobe Illustrator 26.5.0, SVG Export Plug-In . SVG Version: 6.00 Build 0)  -->
<svg version="1.1" id="Layer_1" xmlns="http://www.w3.org/2000/svg" xmlns:xlink="http://www.w3.org/1999/xlink" x="0px" y="0px"
	 viewBox="0 0 1079.54 994.98" style="enable-background:new 0 0 1079.54 994.98;" xml:space="preserve">
<style type="text/css">
	.st0{fill:#F26623;}
	.st1{fill:#828282;}
	.st2{fill:#3A3939;}
</style>
<circle class="st0" cx="535.44" cy="518.1" r="139.71"/>
<g>
	<path class="st1" d="M535.44,186.61c-88.55,0-171.79,34.48-234.4,97.09s-97.09,145.86-97.09,234.4
		c0,88.55,34.48,171.79,97.09,234.4s145.86,97.09,234.4,97.09c88.55,0,171.79-34.48,234.4-97.09s97.09-145.86,97.09-234.4
		c0-88.55-34.48-171.79-97.09-234.4S623.99,186.61,535.44,186.61z M813.79,431.11c-12.91,3.1-26.2,4.68-39.63,4.68
		c-93.19,0-169-75.81-169-169c0-10.48,0.97-20.9,2.86-31.11c50.09,12.78,96.03,38.8,133.54,76.31
		C775.45,345.87,799.94,386.63,813.79,431.11z M826.94,518.1c0,12.46-0.79,24.79-2.31,36.96c-16.46-3.98-33.38-6-50.47-6
		c-24.73,0-48.81,4.17-71.46,12.17c3.56-13.79,5.45-28.25,5.45-43.13c0-17.46-2.61-34.32-7.45-50.21c23.23,8.47,48,12.9,73.46,12.9
		c16.81,0,33.44-1.95,49.64-5.8C825.88,489.14,826.94,503.54,826.94,518.1z M243.95,518.1c0-14.57,1.06-28.97,3.15-43.12
		c16.19,3.85,32.83,5.8,49.64,5.8c25.46,0,50.23-4.43,73.46-12.9c-4.84,15.9-7.45,32.75-7.45,50.21c0,14.89,1.89,29.34,5.45,43.13
		c-22.65-8-46.73-12.17-71.46-12.17c-17.09,0-34.01,2.02-50.47,6C244.73,542.9,243.95,530.56,243.95,518.1z M407.74,518.1
		c0-70.42,57.29-127.7,127.71-127.7c70.42,0,127.7,57.29,127.7,127.7c0,70.42-57.29,127.71-127.7,127.71
		C465.03,645.81,407.74,588.52,407.74,518.1z M563.69,227.96c-2.34,12.76-3.54,25.77-3.54,38.83c0,29.24,5.84,57.58,16.94,83.7
		c-13.34-3.32-27.29-5.09-41.65-5.09c-14.36,0-28.31,1.77-41.65,5.09c11.1-26.12,16.94-54.46,16.94-83.7
		c0-13.1-1.18-26.08-3.52-38.83c9.33-0.89,18.75-1.35,28.23-1.35C544.94,226.61,554.36,227.07,563.69,227.96z M329.33,311.99
		c37.51-37.51,83.45-63.53,133.55-76.31c1.9,10.21,2.86,20.61,2.86,31.11c0,93.19-75.81,169-169,169c-13.43,0-26.72-1.57-39.63-4.67
		C270.95,386.63,295.44,345.87,329.33,311.99z M255.33,599.17c13.47-3.39,27.35-5.11,41.4-5.11c93.19,0,169,75.81,169,169
		c0,12.63-1.37,25.05-4.09,37.15c-49.62-12.89-95.11-38.78-132.32-75.99C293.94,688.84,268.8,645.96,255.33,599.17z M505.97,808.13
		c3.16-14.71,4.76-29.77,4.76-45.07c0-26.63-4.83-52.51-14.08-76.65c12.47,2.87,25.46,4.39,38.79,4.39
		c13.33,0,26.32-1.52,38.79-4.39c-9.25,24.14-14.08,50.02-14.08,76.65c0,15.23,1.61,30.32,4.77,45.07
		c-9.73,0.97-19.57,1.47-29.48,1.47C525.54,809.6,515.7,809.1,505.97,808.13z M741.56,724.22c-37.2,37.2-82.7,63.09-132.31,75.98
		c-2.72-12.13-4.09-24.58-4.09-37.14c0-93.19,75.81-169,169-169c14.05,0,27.93,1.72,41.4,5.11
		C802.09,645.96,776.94,688.84,741.56,724.22z"/>
	<path class="st2" d="M921.38,355.06c-21.1-49.88-51.3-94.67-89.76-133.13c-38.46-38.46-83.25-68.66-133.13-89.76
		c-51.65-21.85-106.51-32.92-163.05-32.92s-111.39,11.08-163.05,32.92c-49.88,21.1-94.67,51.3-133.13,89.76
		c-38.46,38.46-68.66,83.25-89.76,133.13c-21.85,51.65-32.92,106.51-32.92,163.05s11.08,111.39,32.92,163.05
		c21.1,49.88,51.3,94.67,89.76,133.13c38.46,38.46,83.25,68.66,133.13,89.76c51.65,21.85,106.51,32.92,163.05,32.92
		s111.39-11.08,163.05-32.92c49.88-21.1,94.67-51.3,133.13-89.76c38.46-38.46,68.66-83.25,89.76-133.13
		c21.85-51.65,32.92-106.51,32.92-163.05S943.23,406.71,921.38,355.06z M884.54,665.57c-19.08,45.11-46.4,85.63-81.2,120.43
		c-34.8,34.8-75.32,62.12-120.43,81.2c-46.7,19.75-96.31,29.76-147.46,29.76s-100.77-10.01-147.46-29.76
		c-45.11-19.08-85.63-46.4-120.43-81.2c-34.8-34.8-62.12-75.32-81.2-120.43c-19.75-46.7-29.76-96.31-29.76-147.46
		s10.01-100.77,29.76-147.46c19.08-45.11,46.4-85.63,81.2-120.43c34.8-34.8,75.32-62.12,120.43-81.2
		c46.7-19.75,96.31-29.76,147.46-29.76S636.21,149.25,682.91,169c45.11,19.08,85.63,46.4,120.43,81.2s62.12,75.32,81.2,120.43
		c19.75,46.7,29.76,96.31,29.76,147.46S904.29,618.87,884.54,665.57z"/>
</g>
</svg>
