<svg xmlns="http://www.w3.org/2000/svg" viewBox="0 0 48 48"><defs><style>.cls-1{fill:#cb2026;}</style></defs><title>Asset 14</title><g id="Layer_2" data-name="Layer 2"><g id="Layer_1-2" data-name="Layer 1"><path class="cls-1" d="M24,48A24,24,0,1,1,48,24,24,24,0,0,1,24,48ZM24,3.21A20.79,20.79,0,1,0,44.79,24,20.81,20.81,0,0,0,24,3.21Z"/><path class="cls-1" d="M24.28,10.13a11,11,0,0,0-11,11c0,8.25,11,20.43,11,20.43s11-12.18,11-20.43A11,11,0,0,0,24.28,10.13Zm-5.54,11a5.54,5.54,0,1,1,5.54,5.54A5.54,5.54,0,0,1,18.74,21.14Z"/></g></g></svg>